<svg width="24" height="24" viewBox="0 0 24 24" fill="none" xmlns="http://www.w3.org/2000/svg">
<path d="M0 5C0 2.23858 2.23858 0 5 0H19C21.7614 0 24 2.23858 24 5V19C24 21.7614 21.7614 24 19 24H5C2.23858 24 0 21.7614 0 19V5Z" fill="#F0F0F1"/>
<g clip-path="url(#clip0_2_11)">
<path d="M19.2083 2.375H5.79167C3.93921 2.375 2.4375 3.81142 2.4375 5.58333V18.4167C2.4375 20.1886 3.93921 21.625 5.79167 21.625H19.2083C21.0608 21.625 22.5625 20.1886 22.5625 18.4167V5.58333C22.5625 3.81142 21.0608 2.375 19.2083 2.375Z" fill="#F0F0F1" stroke="black"/>
<path opacity="0.92" d="M18.7785 5.125H6.22151C5.57937 5.125 5.05882 5.56472 5.05882 6.10714V6.89286C5.05882 7.43528 5.57937 7.875 6.22151 7.875H18.7785C19.4206 7.875 19.9412 7.43528 19.9412 6.89286V6.10714C19.9412 5.56472 19.4206 5.125 18.7785 5.125Z" fill="#FF0000"/>
<path opacity="0.92" d="M18.7785 10.625H6.22151C5.57937 10.625 5.05882 11.0647 5.05882 11.6071V12.3929C5.05882 12.9353 5.57937 13.375 6.22151 13.375H18.7785C19.4206 13.375 19.9412 12.9353 19.9412 12.3929V11.6071C19.9412 11.0647 19.4206 10.625 18.7785 10.625Z" fill="black"/>
<path opacity="0.92" d="M18.7785 16.125H6.22151C5.57937 16.125 5.05882 16.5647 5.05882 17.1071V17.8929C5.05882 18.4353 5.57937 18.875 6.22151 18.875H18.7785C19.4206 18.875 19.9412 18.4353 19.9412 17.8929V17.1071C19.9412 16.5647 19.4206 16.125 18.7785 16.125Z" fill="black"/>
</g>
<defs>
<clipPath id="clip0_2_11">
<rect width="23" height="22" fill="white" transform="translate(1 1)"/>
</clipPath>
</defs>
</svg>
