<svg width="24" height="24" viewBox="0 0 24 24" fill="none" xmlns="http://www.w3.org/2000/svg">
<path d="M0 5C0 2.23858 2.23858 0 5 0H19C21.7614 0 24 2.23858 24 5V19C24 21.7614 21.7614 24 19 24H5C2.23858 24 0 21.7614 0 19V5Z" fill="#F0F0F1"/>
<rect x="1.5" y="7.5" width="21" height="8" rx="1.5" fill="#F0F0F1" stroke="black"/>
<path opacity="0.92" d="M20.7656 10H18.2344C18.1049 10 18 10.4797 18 11.0714V11.9286C18 12.5203 18.1049 13 18.2344 13H20.7656C20.8951 13 21 12.5203 21 11.9286V11.0714C21 10.4797 20.8951 10 20.7656 10Z" fill="#FF0000" stroke="#FF0000"/>
<path opacity="0.92" d="M14.9844 10H4.01562C3.45471 10 3 10.4797 3 11.0714V11.9286C3 12.5203 3.45471 13 4.01562 13H14.9844C15.5453 13 16 12.5203 16 11.9286V11.0714C16 10.4797 15.5453 10 14.9844 10Z" fill="black" stroke="black"/>
</svg>
