<svg width="24" height="24" viewBox="0 0 24 24" fill="none" xmlns="http://www.w3.org/2000/svg">
<g clip-path="url(#clip0_9_69)">
<path d="M0 5C0 2.23858 2.23858 0 5 0H19C21.7614 0 24 2.23858 24 5V19C24 21.7614 21.7614 24 19 24H5C2.23858 24 0 21.7614 0 19V5Z" fill="#F0F0F1"/>
<path d="M7 14C7 16.5964 7.70178 19.1228 9 21.2C9.26521 21.6243 9.66004 21.9049 10.0976 21.9799C10.5352 22.0549 10.9797 21.9183 11.3333 21.6C11.6869 21.2817 11.9207 20.8079 11.9832 20.2828C12.0458 19.7577 11.9319 19.2243 11.6667 18.8C10.8012 17.4152 10.3333 15.731 10.3333 14" fill="#F0F0F1"/>
<path d="M7 14C7 16.5964 7.70178 19.1228 9 21.2C9.26521 21.6243 9.66004 21.9049 10.0976 21.9799C10.5352 22.0549 10.9797 21.9183 11.3333 21.6C11.6869 21.2817 11.9207 20.8079 11.9832 20.2828C12.0458 19.7577 11.9319 19.2243 11.6667 18.8C10.8012 17.4152 10.3333 15.731 10.3333 14" stroke="#FF0000" stroke-linecap="round" stroke-linejoin="round"/>
<path d="M11.1111 5.78571C13.8146 5.85846 16.4568 4.9384 18.5778 3.18571C18.7098 3.08225 18.8669 3.01924 19.0313 3.00375C19.1957 2.98827 19.361 3.02091 19.5086 3.09803C19.6563 3.17515 19.7805 3.2937 19.8672 3.44039C19.954 3.58708 20 3.75612 20 3.92857V15.0714C20 15.2439 19.954 15.4129 19.8672 15.5596C19.7805 15.7063 19.6563 15.8248 19.5086 15.902C19.361 15.9791 19.1957 16.0117 19.0313 15.9962C18.8669 15.9808 18.7098 15.9178 18.5778 15.8143C16.4568 14.0616 13.8146 13.1415 11.1111 13.2143H5.77778C5.30628 13.2143 4.8541 13.0186 4.5207 12.6703C4.1873 12.3221 4 11.8497 4 11.3571V7.64286C4 7.15031 4.1873 6.67794 4.5207 6.32966C4.8541 5.98138 5.30628 5.78571 5.77778 5.78571H11.1111Z" fill="#F0F0F1" stroke="black" stroke-linecap="round" stroke-linejoin="round"/>
<path d="M11 6V13" stroke="#FF0000" stroke-linecap="round" stroke-linejoin="round"/>
</g>
<defs>
<clipPath id="clip0_9_69">
<path d="M0 5C0 2.23858 2.23858 0 5 0H19C21.7614 0 24 2.23858 24 5V19C24 21.7614 21.7614 24 19 24H5C2.23858 24 0 21.7614 0 19V5Z" fill="white"/>
</clipPath>
</defs>
</svg>
