<svg width="24" height="24" viewBox="0 0 24 24" fill="none" xmlns="http://www.w3.org/2000/svg">
<g clip-path="url(#clip0_4_33)">
<path d="M0 5C0 2.23858 2.23858 0 5 0H19C21.7614 0 24 2.23858 24 5V19C24 21.7614 21.7614 24 19 24H5C2.23858 24 0 21.7614 0 19V5Z" fill="#F0F0F1"/>
<path d="M12.9167 13.595C12.638 13.7559 12.3218 13.8406 12 13.8406C11.6782 13.8406 11.362 13.7559 11.0833 13.595L3.29167 9.13084C3.15059 9.05089 3.03325 8.93495 2.95162 8.79484C2.86998 8.65474 2.82697 8.49549 2.82697 8.33334C2.82697 8.17118 2.86998 8.01193 2.95162 7.87183C3.03325 7.73173 3.15059 7.61579 3.29167 7.53584L11.0833 3.07167C11.362 2.91076 11.6782 2.82605 12 2.82605C12.3218 2.82605 12.638 2.91076 12.9167 3.07167L20.7083 7.53584C20.8494 7.61579 20.9667 7.73173 21.0484 7.87183C21.13 8.01193 21.173 8.17118 21.173 8.33334C21.173 8.49549 21.13 8.65474 21.0484 8.79484C20.9667 8.93495 20.8494 9.05089 20.7083 9.13084L12.9167 13.595Z" fill="#F0F0F1" stroke="#FF0000" stroke-width="1.5" stroke-linecap="round" stroke-linejoin="round"/>
<path d="M19.3333 14.0946L20.7083 14.8692C20.8494 14.9491 20.9667 15.0651 21.0484 15.2052C21.13 15.3453 21.173 15.5045 21.173 15.6667C21.173 15.8288 21.13 15.9881 21.0484 16.1282C20.9667 16.2683 20.8494 16.3842 20.7083 16.4642L12.9167 20.9284C12.638 21.0893 12.3218 21.174 12 21.174C11.6782 21.174 11.362 21.0893 11.0833 20.9284L3.29167 16.4642C3.15059 16.3842 3.03325 16.2683 2.95162 16.1282C2.86998 15.9881 2.82697 15.8288 2.82697 15.6667C2.82697 15.5045 2.86998 15.3453 2.95162 15.2052C3.03325 15.0651 3.15059 14.9491 3.29167 14.8692L4.66667 14.0946" fill="#F0F0F1"/>
<path d="M19.3333 14.0946L20.7083 14.8692C20.8494 14.9491 20.9667 15.0651 21.0484 15.2052C21.13 15.3453 21.173 15.5045 21.173 15.6667C21.173 15.8288 21.13 15.9881 21.0484 16.1282C20.9667 16.2683 20.8494 16.3842 20.7083 16.4642L12.9167 20.9284C12.638 21.0893 12.3218 21.174 12 21.174C11.6782 21.174 11.362 21.0893 11.0833 20.9284L3.29167 16.4642C3.15059 16.3842 3.03325 16.2683 2.95162 16.1282C2.86998 15.9881 2.82697 15.8288 2.82697 15.6667C2.82697 15.5045 2.86998 15.3453 2.95162 15.2052C3.03325 15.0651 3.15059 14.9491 3.29167 14.8692L4.66667 14.0946" stroke="black" stroke-width="1.5" stroke-linecap="round" stroke-linejoin="round"/>
</g>
<defs>
<clipPath id="clip0_4_33">
<path d="M0 5C0 2.23858 2.23858 0 5 0H19C21.7614 0 24 2.23858 24 5V19C24 21.7614 21.7614 24 19 24H5C2.23858 24 0 21.7614 0 19V5Z" fill="white"/>
</clipPath>
</defs>
</svg>
