<svg width="24" height="24" viewBox="0 0 24 24" fill="none" xmlns="http://www.w3.org/2000/svg">
<g clip-path="url(#clip0_4_71)">
<path d="M0 5C0 2.23858 2.23858 0 5 0H19C21.7614 0 24 2.23858 24 5V19C24 21.7614 21.7614 24 19 24H5C2.23858 24 0 21.7614 0 19V5Z" fill="#F0F0F1"/>
<path d="M7 6.3383C7.40327 5.22525 8.19923 4.28668 9.24692 3.68883C10.2946 3.09099 11.5264 2.87245 12.7241 3.07193C13.9219 3.2714 15.0083 3.87601 15.7909 4.77868C16.5735 5.68135 17.0018 6.82381 17 8.00373C17 11.3346 11.8542 13 11.8542 13" fill="#F0F0F1"/>
<path d="M7 6.3383C7.40327 5.22525 8.19923 4.28668 9.24692 3.68883C10.2946 3.09099 11.5264 2.87245 12.7241 3.07193C13.9219 3.2714 15.0083 3.87601 15.7909 4.77868C16.5735 5.68135 17.0018 6.82381 17 8.00373C17 11.3346 11.8542 13 11.8542 13" stroke="#FF0000" stroke-width="2" stroke-linecap="round" stroke-linejoin="round"/>
<circle cx="12" cy="18" r="2" fill="black"/>
</g>
<defs>
<clipPath id="clip0_4_71">
<path d="M0 5C0 2.23858 2.23858 0 5 0H19C21.7614 0 24 2.23858 24 5V19C24 21.7614 21.7614 24 19 24H5C2.23858 24 0 21.7614 0 19V5Z" fill="white"/>
</clipPath>
</defs>
</svg>
