<svg width="24" height="24" viewBox="0 0 24 24" fill="none" xmlns="http://www.w3.org/2000/svg">
<rect width="24" height="24" rx="5" fill="#F0F0F1"/>
<path d="M7.41666 20.25H16.5833" stroke="black" stroke-width="1.5" stroke-linecap="round" stroke-linejoin="round"/>
<path d="M19.3333 3.75H4.66668C3.65415 3.75 2.83334 4.57081 2.83334 5.58333V14.75C2.83334 15.7625 3.65415 16.5833 4.66668 16.5833H19.3333C20.3459 16.5833 21.1667 15.7625 21.1667 14.75V5.58333C21.1667 4.57081 20.3459 3.75 19.3333 3.75Z" fill="#F0F0F1" stroke="black" stroke-width="1.5" stroke-linecap="round" stroke-linejoin="round"/>
<path d="M14.7802 9.65334C14.8703 9.70544 14.945 9.78029 14.997 9.87039C15.0489 9.96049 15.0763 10.0627 15.0763 10.1667C15.0763 10.2707 15.0489 10.3729 14.997 10.463C14.945 10.5531 14.8703 10.6279 14.7802 10.68L11.054 12.836C10.964 12.8881 10.8619 12.9155 10.7579 12.9155C10.654 12.9155 10.5518 12.8881 10.4618 12.836C10.3718 12.784 10.2972 12.7091 10.2454 12.619C10.1935 12.5288 10.1664 12.4266 10.1667 12.3227V8.01068C10.1665 7.90685 10.1936 7.8048 10.2454 7.71481C10.2972 7.62481 10.3718 7.55003 10.4616 7.498C10.5515 7.44597 10.6534 7.41851 10.7573 7.4184C10.8611 7.41828 10.9631 7.44551 11.0531 7.49734L14.7802 9.65334Z" fill="#FF0000" stroke="#FF0000" stroke-width="1.5" stroke-linecap="round" stroke-linejoin="round"/>
</svg>
